<svg xmlns="http://www.w3.org/2000/svg">

	<symbol id="menu" viewBox="0 0 24 24">
    <path d="M14 8.775q0-.225.163-.463q.162-.237.362-.312q.725-.25 1.45-.375T17.5 7.5q.5 0 .988.062q.487.063.962.163q.225.05.387.25q.163.2.163.45q0 .425-.275.625t-.7.1q-.35-.075-.737-.113Q17.9 9 17.5 9q-.65 0-1.275.125q-.625.125-1.2.325q-.45.175-.737-.025q-.288-.2-.288-.65Zm0 5.5q0-.225.163-.463q.162-.237.362-.312q.725-.25 1.45-.375T17.5 13q.5 0 .988.062q.487.063.962.163q.225.05.387.25q.163.2.163.45q0 .425-.275.625t-.7.1q-.35-.075-.737-.113q-.388-.037-.788-.037q-.65 0-1.275.113q-.625.112-1.2.312q-.45.175-.737-.013q-.288-.187-.288-.637Zm0-2.75q0-.225.163-.463q.162-.237.362-.312q.725-.25 1.45-.375t1.525-.125q.5 0 .988.062q.487.063.962.163q.225.05.387.25q.163.2.163.45q0 .425-.275.625t-.7.1q-.35-.075-.737-.113q-.388-.037-.788-.037q-.65 0-1.275.125q-.625.125-1.2.325q-.45.175-.737-.025q-.288-.2-.288-.65Zm-1 5.525q1.1-.525 2.213-.788Q16.325 16 17.5 16q.9 0 1.763.15q.862.15 1.737.45V6.7q-.825-.35-1.712-.525Q18.4 6 17.5 6q-1.175 0-2.325.3q-1.15.3-2.175.9Zm-1 2.425q-.35 0-.662-.087q-.313-.088-.588-.238q-.975-.575-2.05-.862Q7.625 18 6.5 18q-1.05 0-2.062.275q-1.013.275-1.938.775q-.525.275-1.012-.025Q1 18.725 1 18.15V6.1q0-.275.138-.525q.137-.25.412-.375q1.15-.6 2.4-.9Q5.2 4 6.5 4q1.45 0 2.838.375Q10.725 4.75 12 5.5q1.275-.75 2.663-1.125Q16.05 4 17.5 4q1.3 0 2.55.3q1.25.3 2.4.9q.275.125.413.375q.137.25.137.525v12.05q0 .575-.487.875q-.488.3-1.013.025q-.925-.5-1.938-.775Q18.55 18 17.5 18q-1.125 0-2.2.288q-1.075.287-2.05.862q-.275.15-.587.238q-.313.087-.663.087Z"/>
	</symbol>

	<symbol id="beer" viewBox="0 0 24 24">
    <path d="M10 16.5c0 .275-.225.5-.5.5s-.5-.225-.5-.5v-6c0-.275.225-.5.5-.5s.5.225.5.5v6zm2 0c0 .275-.225.5-.5.5s-.5-.225-.5-.5v-6c0-.275.225-.5.5-.5s.5.225.5.5v6zm2 0c0 .275-.225.5-.5.5s-.5-.225-.5-.5v-6c0-.275.225-.5.5-.5s.5.225.5.5v6zM18.5 6H18V5a2 2 0 0 0-2-2H7a2 2 0 0 0-2 2v13c0 1.656 1.344 3 3 3h7c1.656 0 3-1.344 3-3h.5c1.93 0 3.5-1.57 3.5-3.5v-5C22 7.57 20.43 6 18.5 6zM7 5h9v1h-4.444l-.118.332c-.164.458-.663.73-1.117.648l-.348-.058l-.173.307A1.499 1.499 0 0 1 8.5 8C7.673 8 7 7.327 7 6.5V5zm9 13a1 1 0 0 1-1 1H8a1 1 0 0 1-1-1V8.49c.419.317.936.51 1.5.51c.784 0 1.521-.376 1.989-1c.728 0 1.383-.391 1.736-1H16v11zm4-3.5c0 .827-.673 1.5-1.5 1.5H17V8h1.5c.827 0 1.5.673 1.5 1.5v5z"/>
	</symbol>

	<symbol id="wine" viewBox="0 0 256 256">
    <path d="m209.7 110l-26-88.3A8 8 0 0 0 176 16H80a8 8 0 0 0-7.7 5.7l-26 88.3a31.5 31.5 0 0 0 1.5 22.2a88.1 88.1 0 0 0 72.2 51.4V224H88a8 8 0 0 0 0 16h80a8 8 0 0 0 0-16h-32v-40.4a88.1 88.1 0 0 0 72.2-51.4a31.5 31.5 0 0 0 1.5-22.2Zm-78.1-13.2c-26.2-13-47.2-13-61.9-9.5L86 32h84l20.8 70.5c-10.7 4.5-31 8.4-59.2-5.7Z"/>
	</symbol>
</svg>